<?xml version="1.0" encoding="UTF-8"?>
<svg id="Livello_1" xmlns="http://www.w3.org/2000/svg" version="1.1" viewBox="0 0 800 800">
  <!-- Generator: Adobe Illustrator 29.0.1, SVG Export Plug-In . SVG Version: 2.1.0 Build 192)  -->
  <defs>
    <style>
      .st0 {
        fill: #2ba5de;
      }

      .st1 {
        fill: none;
        stroke: #2ba5de;
        stroke-linejoin: round;
        stroke-width: 46.2px;
      }
    </style>
  </defs>
  <path class="st1" d="M109.7,218.5l225,168.7c38.7,29.1,91.9,29.1,130.6,0l225-168.7"/>
  <path class="st0" d="M653.9,192.2c14.6,0,26.4,11.9,26.4,26.4v362.8c0,14.6-11.9,26.4-26.4,26.4H146.1c-14.6,0-26.4-11.9-26.4-26.4V218.6c0-14.6,11.9-26.4,26.4-26.4h507.9M653.9,146H146.1c-40.1,0-72.6,32.5-72.6,72.6v362.8c0,40.1,32.5,72.6,72.6,72.6h507.9c40.1,0,72.6-32.5,72.6-72.6V218.6c0-40.1-32.5-72.6-72.6-72.6h0Z"/>
</svg>