<?xml version="1.0" encoding="UTF-8"?>
<svg id="Livello_1" xmlns="http://www.w3.org/2000/svg" version="1.1" viewBox="0 0 800 800">
  <!-- Generator: Adobe Illustrator 29.0.1, SVG Export Plug-In . SVG Version: 2.1.0 Build 192)  -->
  <defs>
    <style>
      .st0 {
        fill: #1d7097;
      }
    </style>
  </defs>
  <path class="st0" d="M400,189.8c.7,0,57.6,0,120.5,1.9,111.2,3.3,144.5,9.4,153.7,11.8,15.6,4.2,27.9,16.5,32.1,32.1,11.2,42,13.7,132.9,13.8,164.4,0,31.5-2.5,122.3-13.7,164.4-4.2,15.6-16.5,27.9-32.1,32.1-9.2,2.5-42.5,8.5-153.7,11.8-63,1.9-119.9,1.9-120.5,1.9s-57.3,0-120.3-1.9c-111.4-3.3-144.7-9.4-153.9-11.9-15.6-4.2-27.9-16.5-32.1-32.1-11.2-41.9-13.7-132.8-13.7-164.3s2.5-122.3,13.7-164.4c4.2-15.6,16.5-27.9,32.1-32.1,9.2-2.5,42.5-8.5,153.7-11.8,62.9-1.9,119.8-1.9,120.5-1.9M326.7,556.1c8,0,15.9-2.1,23.1-6.2l190.3-109.9c14.3-8.2,23.1-23.5,23.1-40s-8.8-31.7-23.1-40l-190.3-109.9c-7.1-4.1-15.1-6.2-23.1-6.2s-15.9,2.1-23.1,6.2c-14.3,8.2-23.1,23.5-23.1,40v219.7c0,16.5,8.8,31.7,23.1,40,7.1,4.1,15.1,6.2,23.1,6.2M400,143.6s-229.1,0-286.2,15.3c-31.5,8.4-56.3,33.2-64.8,64.8-15.3,57.1-15.3,176.3-15.3,176.3,0,0,0,119.2,15.3,176.3,8.4,31.5,33.2,56.3,64.8,64.8,57.1,15.3,286.2,15.3,286.2,15.3,0,0,229.1,0,286.2-15.3,31.5-8.4,56.3-33.2,64.8-64.8,15.3-57.1,15.3-176.3,15.3-176.3,0,0,0-119.2-15.3-176.3-8.4-31.5-33.2-56.3-64.8-64.8-57.1-15.3-286.2-15.3-286.2-15.3h0ZM326.7,509.9v-219.7l190.3,109.9-190.3,109.9h0Z"/>
</svg>